<svg width="153" height="49" viewBox="0 0 153 49" fill="none" xmlns="http://www.w3.org/2000/svg">
<path d="M13.0143 12.2793C12.8792 14.3127 12.7614 16.3394 12.6612 18.3595C8.74597 18.738 4.52558 19.2376 0 19.8581C0.418551 17.7412 0.885061 15.6044 1.39953 13.4478C5.49348 12.9769 9.36508 12.5874 13.0143 12.2793ZM5.18611 7.20259C7.13499 7.03534 9.04026 6.8835 10.9019 6.74707C10.1346 14.031 9.71387 21.1455 9.63975 28.0905C9.65937 28.4008 9.71823 28.6583 9.80979 28.8629C9.91443 29.0478 10.0583 29.193 10.248 29.2788C10.4376 29.3581 10.673 29.3845 10.9543 29.3647C11.1505 29.3449 11.3728 29.3052 11.6279 29.226C11.8829 29.1468 12.0726 29.0808 12.1903 29.0412C12.6394 30.8721 13.1059 32.6941 13.5898 34.5074C13.3217 34.6329 12.9424 34.7781 12.4454 34.9563C11.9418 35.1346 11.3401 35.2732 10.6273 35.3657C9.17542 35.5571 7.88053 35.4713 6.77529 35.1148C5.63736 34.7517 4.70216 34.1179 3.97623 33.2069C3.24377 32.2958 2.7729 31.1075 2.6094 29.6221C2.76636 22.4526 3.62526 14.9794 5.18611 7.20259ZM20.3717 42.852C19.7046 42.8652 19.0571 42.8124 18.4359 42.6804C17.808 42.555 17.2521 42.3899 16.7551 42.1589C16.947 40.2972 17.1475 38.4311 17.3568 36.5606C17.8669 36.7718 18.3312 36.9105 18.7302 36.9633C19.1487 37.0161 19.4888 36.9633 19.7569 36.8114C20.0316 36.6596 20.2147 36.3823 20.2932 35.973C20.3237 35.841 20.3542 35.7067 20.3847 35.5703C17.917 27.8991 15.8047 20.1112 14.0476 12.2067C15.9703 12.0923 17.8647 11.9889 19.7308 11.8964C20.6071 17.1866 21.5968 22.4328 22.6998 27.635C22.7522 27.635 22.8067 27.6328 22.8633 27.6284C23.4214 22.3602 24.0035 17.0524 24.6095 11.705C26.4014 11.6522 28.1846 11.6016 29.9591 11.5531C28.7776 19.8801 27.6069 28.1257 26.4472 36.2899C26.2902 37.5178 25.9829 38.6269 25.5447 39.604C25.1131 40.5942 24.4787 41.3799 23.6481 41.9608C22.811 42.5352 21.7254 42.8322 20.3717 42.852ZM34.5959 42.6936C33.4056 32.3949 32.3396 22.0015 31.3979 11.5135C33.059 11.4783 34.7179 11.4453 36.3747 11.4145C36.5229 12.7569 36.6733 14.097 36.8259 15.435C36.8608 15.435 36.8979 15.435 36.9371 15.435C37.0287 14.656 37.2183 13.9298 37.493 13.2696C37.7677 12.6094 38.1405 12.0813 38.6179 11.672C39.0757 11.2693 39.6512 11.058 40.3378 11.0448C41.2469 11.0316 42.1821 11.4277 43.1238 12.2265C44.0852 13.0319 44.9681 14.2929 45.779 16.0291C46.603 17.7654 47.2439 20.0166 47.7017 22.7695C48.1399 25.4168 48.2249 27.5954 47.9633 29.3251C47.6952 31.0547 47.172 32.3421 46.3807 33.1937C45.5959 34.0453 44.6542 34.481 43.5555 34.4876C42.8361 34.4942 42.1625 34.3226 41.5477 33.9859C40.9395 33.636 40.3967 33.1673 39.9128 32.5797C39.4419 31.9658 39.056 31.2924 38.7421 30.52C38.716 30.5244 38.692 30.5266 38.6702 30.5266C39.1934 34.58 39.7275 38.6247 40.2724 42.6606C38.3802 42.6694 36.488 42.6804 34.5959 42.6936ZM37.6107 22.8883C37.7481 24.004 37.9573 24.9613 38.2451 25.7667C38.5394 26.5589 38.886 27.1795 39.298 27.6218C39.71 28.0509 40.1678 28.2622 40.6648 28.2556C41.1619 28.249 41.5608 28.0245 41.8486 27.6086C42.1363 27.1663 42.3194 26.5523 42.3914 25.7469C42.4633 24.9283 42.4175 23.9578 42.2606 22.8289C42.1036 21.7 41.8813 20.7296 41.587 19.9308C41.2992 19.1187 40.9526 18.4982 40.5602 18.0757C40.1743 17.64 39.7362 17.4287 39.2653 17.4353C38.7944 17.4419 38.4086 17.6664 38.1208 18.1087C37.8331 18.5444 37.6434 19.1716 37.5519 19.9902C37.4603 20.7956 37.4799 21.766 37.6107 22.8883ZM59.3427 34.5338C57.6946 34.5338 56.1905 34.0783 54.8302 33.1541C53.4895 32.2232 52.3516 30.8897 51.4098 29.1402C50.4877 27.3907 49.8206 25.2848 49.3956 22.8223C48.9835 20.4589 48.9247 18.3794 49.2059 16.5969C49.474 14.8144 50.043 13.4082 50.9193 12.418C51.7695 11.4079 52.9205 10.8996 54.3593 10.8864C55.4122 10.8798 56.4324 11.1504 57.4265 11.6852C58.4271 12.2331 59.3688 13.0187 60.2452 14.0486C61.1281 15.0785 61.9259 16.3262 62.6322 17.7984C63.332 19.264 63.901 20.9012 64.3326 22.7299C64.4852 23.3769 64.6334 24.0172 64.7773 24.651C60.2866 24.6422 55.8199 24.6466 51.3771 24.6642C51.1068 23.1546 50.8343 21.6406 50.5596 20.1222C53.2977 20.109 56.0422 20.098 58.7933 20.0892C58.6429 19.429 58.4075 18.8547 58.087 18.3529C57.7731 17.8446 57.4069 17.4485 57.0014 17.1646C56.5894 16.8742 56.1708 16.7355 55.7458 16.7421C55.3272 16.7421 54.9675 16.8874 54.6798 17.1778C54.3855 17.4617 54.1827 17.8512 54.0716 18.3529C53.9604 18.8547 53.9735 19.4356 54.0912 20.1024C54.4138 21.7396 54.7343 23.3725 55.0525 25.0009C55.1899 25.7337 55.4188 26.3939 55.7327 26.9682C56.0466 27.5294 56.4259 27.9849 56.8706 28.315C57.3153 28.6319 57.8058 28.7969 58.3486 28.7969C58.7214 28.7969 59.0484 28.7177 59.3296 28.5659C59.6108 28.4008 59.8397 28.1697 60.0032 27.8793C60.1602 27.569 60.2583 27.2059 60.2713 26.7768C61.9281 26.7812 63.5936 26.7878 65.2678 26.7966C65.4444 28.381 65.3332 29.7542 64.9343 30.9161C64.5288 32.0714 63.8486 32.956 62.9069 33.5964C61.9586 34.2236 60.7749 34.5338 59.3427 34.5338ZM93.7293 19.3036C94.1827 21.5042 94.6274 23.696 95.0634 25.8789C85.0705 25.5356 75.2934 25.287 65.7321 25.1329C65.2482 23.06 64.7533 20.9804 64.2476 18.8943C73.7434 18.9735 83.5707 19.1099 93.7293 19.3036ZM106.286 36.4747C104.52 36.3493 102.918 35.7222 101.486 34.5933C100.034 33.4644 98.8042 31.9526 97.7774 30.0512C96.7441 28.1367 95.979 25.9384 95.4885 23.4561C94.9849 20.9606 94.8868 18.7755 95.2073 16.894C95.5277 14.9861 96.2536 13.5073 97.3916 12.4642C98.5361 11.3881 100.06 10.8534 101.969 10.8732C103.703 10.893 105.272 11.3683 106.685 12.2925C108.084 13.2102 109.255 14.5173 110.19 16.1942C111.106 17.8578 111.727 19.8119 112.054 22.0169C110.153 21.9289 108.259 21.8453 106.371 21.766C106.07 20.4457 105.651 19.429 105.102 18.7292C104.553 18.0163 103.925 17.6532 103.245 17.6334C102.702 17.6201 102.27 17.8248 101.95 18.2737C101.629 18.7094 101.44 19.3762 101.374 20.2675C101.315 21.1521 101.407 22.2744 101.649 23.6277C101.884 24.9811 102.192 26.1034 102.565 27.0078C102.937 27.9123 103.356 28.5923 103.814 29.0544C104.278 29.5165 104.769 29.7608 105.285 29.7938C105.723 29.8202 106.09 29.6882 106.384 29.4175C106.672 29.127 106.874 28.6913 106.992 28.1037C107.116 27.5228 107.129 26.7966 107.031 25.9384C108.902 26.0352 110.772 26.1386 112.643 26.2486C112.924 28.4602 112.858 30.3615 112.44 31.9526C112.028 33.5172 111.295 34.6989 110.249 35.4845C109.222 36.2767 107.895 36.6002 106.286 36.4747ZM116.508 36.8511C115.409 28.4668 114.286 19.977 113.14 11.3815C115.254 11.4343 117.371 11.4937 119.49 11.5597C120.466 20.3093 121.432 28.9201 122.387 37.3924C120.425 37.2075 118.465 37.0271 116.508 36.8511ZM115.971 8.72099C115.108 8.70118 114.31 8.26547 113.578 7.40724C112.839 6.55561 112.394 5.53895 112.231 4.35063C112.067 3.16892 112.237 2.14564 112.754 1.29402C113.27 0.442393 113.977 0.00667792 114.86 7.6171e-05C115.762 -0.00652558 116.58 0.415987 117.312 1.27421C118.038 2.13244 118.476 3.16892 118.62 4.38364C118.764 5.59176 118.568 6.62163 118.051 7.47326C117.541 8.32488 116.848 8.73419 115.971 8.72099ZM133.217 12.352C133.374 14.7814 133.531 17.1998 133.688 19.6073C129.912 19.198 126.13 18.8525 122.341 18.5708C122.101 16.2646 121.859 13.954 121.615 11.639C125.491 11.8282 129.358 12.0659 133.217 12.352ZM123.224 5.22206C125.378 5.27488 127.532 5.33429 129.685 5.40031C130.331 13.899 130.969 22.2128 131.602 30.3417C131.634 30.7114 131.7 31.0217 131.798 31.2792C131.902 31.5168 132.033 31.7215 132.21 31.8601C132.386 31.9922 132.602 32.078 132.864 32.1176C133.04 32.144 133.243 32.144 133.479 32.111C133.714 32.078 133.891 32.0516 134.002 32.0252C134.455 34.2214 134.909 36.3955 135.362 38.5477C135.113 38.6269 134.754 38.7127 134.283 38.8118C133.812 38.9108 133.25 38.9438 132.589 38.9108C131.255 38.8316 130.11 38.4817 129.149 37.8479C128.181 37.1877 127.41 36.2569 126.821 35.029C126.239 33.801 125.86 32.3024 125.703 30.52C124.892 22.2238 124.065 13.7911 123.224 5.22206ZM141.745 48.8926C141.091 48.7936 140.457 48.6286 139.855 48.3843C139.247 48.1532 138.704 47.876 138.226 47.5525C138.462 45.5764 138.706 43.598 138.959 41.6175C139.449 41.9542 139.901 42.1985 140.293 42.3503C140.699 42.4955 141.032 42.5154 141.3 42.4163C141.575 42.3239 141.758 42.073 141.85 41.6637C141.88 41.5273 141.911 41.3909 141.941 41.2544C139.452 32.012 136.932 22.413 134.381 12.4576C136.565 12.7128 138.745 13.0011 140.921 13.3224C142.072 20.2586 143.225 26.9682 144.38 33.4511C144.437 33.4688 144.494 33.4886 144.55 33.5106C145.2 27.6174 145.915 21.3303 146.696 14.6494C148.819 15.3888 150.92 16.2426 153 17.2108C151.09 27.2807 149.412 36.1271 147.964 43.7499C147.762 44.8788 147.428 45.8558 146.957 46.6811C146.493 47.5393 145.845 48.173 145.002 48.5824C144.165 49.0049 143.079 49.1039 141.745 48.8926Z" fill="black"/>
</svg>
